<?xml version="1.0" encoding="UTF-8" standalone="no"?><!DOCTYPE svg PUBLIC "-//W3C//DTD SVG 1.1//EN" "http://www.w3.org/Graphics/SVG/1.1/DTD/svg11.dtd"><svg width="100%" height="100%" viewBox="0 0 770 300" version="1.1" xmlns="http://www.w3.org/2000/svg" xmlns:xlink="http://www.w3.org/1999/xlink" xml:space="preserve" xmlns:serif="http://www.serif.com/" style="fill-rule:evenodd;clip-rule:evenodd;stroke-linejoin:round;"><path d="M360.6,48c81,0 123,-12 207,-21l-0,252c-84,-9 -126,-231 -207,-231Z" style="fill:none;fill-rule:nonzero;stroke:#d7d6cf;stroke-opacity:0.51;stroke-width:7.5px;"/><path d="M360.6,114c81,0 123,-78 207,-87l-0,252c-84,-9 -126,-165 -207,-165Z" style="fill:none;fill-rule:nonzero;stroke:#d7d6cf;stroke-opacity:0.51;stroke-width:7.5px;"/><path d="M360.6,246c81,0 123,-210 207,-219l-0,252c-84,-9 -126,-33 -207,-33Z" style="fill:none;fill-rule:nonzero;stroke:#d7d6cf;stroke-opacity:0.51;stroke-width:7.5px;"/><path d="M581.4,21l0,264" style="fill:none;fill-rule:nonzero;stroke:#1a1a1a;stroke-width:9px;stroke-linecap:round;stroke-linejoin:miter;"/><path d="M360.6,180c81,0 123,-144 207,-153l-0,252c-84,-9 -126,-99 -207,-99Z" style="fill:#5b9bd5;fill-opacity:0.73;fill-rule:nonzero;stroke:#5b9bd5;stroke-width:7.5px;"/><path d="M314.28,16.163l28.44,-0c9.003,-0 16.251,7.248 16.251,16.251l0,28.44c0,9.003 -7.248,16.252 -16.251,16.252l-28.44,-0c-9.003,-0 -16.251,-7.249 -16.251,-16.252l-0,-28.44c-0,-9.003 7.248,-16.251 16.251,-16.251Z" style="fill:#d7d6cf;fill-rule:nonzero;"/><path d="M314.28,83.529l28.44,-0c9.003,-0 16.251,7.248 16.251,16.251l0,28.44c0,9.003 -7.248,16.251 -16.251,16.251l-28.44,0c-9.003,0 -16.251,-7.248 -16.251,-16.251l-0,-28.44c-0,-9.003 7.248,-16.251 16.251,-16.251Z" style="fill:#d7d6cf;fill-rule:nonzero;"/><path d="M314.28,215.529l28.44,-0c9.003,-0 16.251,7.248 16.251,16.251l0,28.44c0,9.003 -7.248,16.251 -16.251,16.251l-28.44,0c-9.003,0 -16.251,-7.248 -16.251,-16.251l-0,-28.44c-0,-9.003 7.248,-16.251 16.251,-16.251Z" style="fill:#d7d6cf;fill-rule:nonzero;"/><path d="M314.28,149.529l28.44,-0c9.003,-0 16.251,7.248 16.251,16.251l0,28.44c0,9.003 -7.248,16.251 -16.251,16.251l-28.44,0c-9.003,0 -16.251,-7.248 -16.251,-16.251l-0,-28.44c-0,-9.003 7.248,-16.251 16.251,-16.251Z" style="fill:#5b9bd5;fill-rule:nonzero;"/><path d="M596.7,27l153,0c2.492,0 4.5,2.008 4.5,4.5l0,15c0,2.492 -2.008,4.5 -4.5,4.5l-153,0c-2.492,0 -4.5,-2.008 -4.5,-4.5l0,-15c0,-2.492 2.008,-4.5 4.5,-4.5Z" style="fill:#5b9bd5;fill-rule:nonzero;"/><path d="M596.7,63l126,0c2.492,0 4.5,2.008 4.5,4.5l0,15c0,2.492 -2.008,4.5 -4.5,4.5l-126,0c-2.492,0 -4.5,-2.008 -4.5,-4.5l0,-15c0,-2.492 2.008,-4.5 4.5,-4.5Z" style="fill:#5b9bd5;fill-rule:nonzero;"/><path d="M596.7,99l102,0c2.492,0 4.5,2.008 4.5,4.5l0,15c0,2.492 -2.008,4.5 -4.5,4.5l-102,0c-2.492,0 -4.5,-2.008 -4.5,-4.5l0,-15c0,-2.492 2.008,-4.5 4.5,-4.5Z" style="fill:#5b9bd5;fill-rule:nonzero;"/><path d="M596.7,135l81,0c2.492,0 4.5,2.008 4.5,4.5l0,15c0,2.492 -2.008,4.5 -4.5,4.5l-81,0c-2.492,0 -4.5,-2.008 -4.5,-4.5l0,-15c0,-2.492 2.008,-4.5 4.5,-4.5Z" style="fill:#5b9bd5;fill-rule:nonzero;"/><path d="M596.7,171l63,0c2.492,0 4.5,2.008 4.5,4.5l0,15c0,2.492 -2.008,4.5 -4.5,4.5l-63,0c-2.492,0 -4.5,-2.008 -4.5,-4.5l0,-15c0,-2.492 2.008,-4.5 4.5,-4.5Z" style="fill:#5b9bd5;fill-rule:nonzero;"/><path d="M596.7,207l42,0c2.492,0 4.5,2.008 4.5,4.5l0,15c0,2.492 -2.008,4.5 -4.5,4.5l-42,0c-2.492,0 -4.5,-2.008 -4.5,-4.5l0,-15c0,-2.492 2.008,-4.5 4.5,-4.5Z" style="fill:#5b9bd5;fill-rule:nonzero;"/><path d="M596.7,243l24,0c2.492,0 4.5,2.008 4.5,4.5l0,15c0,2.492 -2.008,4.5 -4.5,4.5l-24,0c-2.492,0 -4.5,-2.008 -4.5,-4.5l0,-15c0,-2.492 2.008,-4.5 4.5,-4.5Z" style="fill:#5b9bd5;fill-rule:nonzero;"/><g><path d="M317.535,230.541c0.956,0 1.781,-0.348 2.478,-1.044c0.696,-0.697 1.045,-1.523 1.045,-2.478c-0,-0.995 -0.339,-1.831 -1.015,-2.508c-0.677,-0.676 -1.513,-1.015 -2.508,-1.015c-0.995,0 -1.831,0.339 -2.507,1.015c-0.677,0.677 -1.015,1.513 -1.015,2.508c-0,0.955 0.348,1.781 1.045,2.478c0.696,0.696 1.522,1.044 2.477,1.044Zm7.762,0c0.955,0 1.781,-0.348 2.477,-1.044c0.697,-0.697 1.045,-1.523 1.045,-2.478c0,-0.995 -0.338,-1.831 -1.015,-2.508c-0.676,-0.676 -1.512,-1.015 -2.507,-1.015c-0.995,0 -1.831,0.339 -2.508,1.015c-0.676,0.677 -1.015,1.513 -1.015,2.508c0,0.995 0.339,1.831 1.015,2.507c0.677,0.677 1.513,1.015 2.508,1.015Zm7.761,0c0.955,0 1.781,-0.348 2.478,-1.044c0.696,-0.697 1.045,-1.523 1.045,-2.478c-0,-0.995 -0.339,-1.831 -1.015,-2.508c-0.677,-0.676 -1.513,-1.015 -2.508,-1.015c-0.995,0 -1.831,0.339 -2.507,1.015c-0.677,0.677 -1.015,1.513 -1.015,2.508c-0,0.995 0.338,1.831 1.015,2.507c0.676,0.677 1.512,1.015 2.507,1.015Zm7.762,0c0.955,0 1.781,-0.348 2.477,-1.044c0.697,-0.697 1.045,-1.523 1.045,-2.478c0,-0.995 -0.338,-1.831 -1.015,-2.508c-0.677,-0.676 -1.512,-1.015 -2.507,-1.015c-0.996,0 -1.831,0.339 -2.508,1.015c-0.677,0.677 -1.015,1.513 -1.015,2.508c0,0.995 0.338,1.831 1.015,2.507c0.677,0.677 1.512,1.015 2.508,1.015Zm-15.523,7.762c0.955,-0 1.781,-0.349 2.477,-1.045c0.697,-0.697 1.045,-1.522 1.045,-2.478c0,-0.995 -0.338,-1.831 -1.015,-2.507c-0.676,-0.677 -1.512,-1.015 -2.507,-1.015c-0.995,-0 -1.831,0.338 -2.508,1.015c-0.676,0.676 -1.015,1.512 -1.015,2.507c0,0.995 0.339,1.831 1.015,2.508c0.677,0.676 1.513,1.015 2.508,1.015Zm7.761,-0c0.955,-0 1.781,-0.349 2.478,-1.045c0.696,-0.697 1.045,-1.522 1.045,-2.478c-0,-0.995 -0.339,-1.831 -1.015,-2.507c-0.677,-0.677 -1.513,-1.015 -2.508,-1.015c-0.995,-0 -1.831,0.338 -2.507,1.015c-0.677,0.676 -1.015,1.512 -1.015,2.507c-0,0.995 0.338,1.831 1.015,2.508c0.676,0.676 1.512,1.015 2.507,1.015Zm-7.761,7.701c0.995,0 1.831,-0.338 2.507,-1.014c0.677,-0.677 1.015,-1.513 1.015,-2.508c0,-0.955 -0.348,-1.771 -1.045,-2.448c-0.696,-0.676 -1.522,-1.015 -2.477,-1.015c-0.995,0 -1.831,0.329 -2.508,0.985c-0.676,0.657 -1.015,1.483 -1.015,2.478c0,0.995 0.339,1.831 1.015,2.508c0.677,0.676 1.513,1.014 2.508,1.014Zm7.761,0c0.995,0 1.831,-0.338 2.508,-1.014c0.676,-0.677 1.015,-1.513 1.015,-2.508c-0,-0.955 -0.349,-1.771 -1.045,-2.448c-0.697,-0.676 -1.523,-1.015 -2.478,-1.015c-0.995,0 -1.831,0.329 -2.507,0.985c-0.677,0.657 -1.015,1.483 -1.015,2.478c-0,0.995 0.338,1.831 1.015,2.508c0.676,0.676 1.512,1.014 2.507,1.014Zm-7.761,7.762c0.995,-0 1.831,-0.338 2.507,-1.015c0.677,-0.677 1.015,-1.513 1.015,-2.508c0,-0.955 -0.348,-1.781 -1.045,-2.477c-0.696,-0.697 -1.522,-1.045 -2.477,-1.045c-0.995,-0 -1.831,0.338 -2.508,1.015c-0.676,0.676 -1.015,1.512 -1.015,2.507c0,0.995 0.339,1.831 1.015,2.508c0.677,0.677 1.513,1.015 2.508,1.015Zm7.761,-0c0.995,-0 1.831,-0.338 2.508,-1.015c0.676,-0.677 1.015,-1.513 1.015,-2.508c-0,-0.955 -0.349,-1.781 -1.045,-2.477c-0.697,-0.697 -1.523,-1.045 -2.478,-1.045c-0.995,-0 -1.831,0.338 -2.507,1.015c-0.677,0.676 -1.015,1.512 -1.015,2.507c-0,0.995 0.338,1.831 1.015,2.508c0.676,0.677 1.512,1.015 2.507,1.015Zm-7.761,7.881c0.995,-0 1.831,-0.339 2.507,-1.015c0.677,-0.677 1.015,-1.513 1.015,-2.508c0,-0.955 -0.348,-1.781 -1.045,-2.477c-0.696,-0.697 -1.522,-1.045 -2.477,-1.045c-0.995,-0 -1.831,0.338 -2.508,1.015c-0.676,0.676 -1.015,1.512 -1.015,2.507c0,0.995 0.339,1.831 1.015,2.508c0.677,0.676 1.513,1.015 2.508,1.015Zm7.761,-0c0.995,-0 1.831,-0.339 2.508,-1.015c0.676,-0.677 1.015,-1.513 1.015,-2.508c-0,-0.955 -0.349,-1.781 -1.045,-2.477c-0.697,-0.697 -1.523,-1.045 -2.478,-1.045c-0.995,-0 -1.831,0.338 -2.507,1.015c-0.677,0.676 -1.015,1.512 -1.015,2.507c-0,0.995 0.338,1.831 1.015,2.508c0.676,0.676 1.512,1.015 2.507,1.015Zm-15.523,7.761c0.956,0 1.781,-0.348 2.478,-1.045c0.696,-0.696 1.045,-1.522 1.045,-2.477c-0,-0.956 -0.349,-1.782 -1.045,-2.478c-0.697,-0.697 -1.522,-1.045 -2.478,-1.045c-0.955,0 -1.781,0.348 -2.477,1.045c-0.697,0.696 -1.045,1.522 -1.045,2.478c-0,0.955 0.348,1.781 1.045,2.477c0.696,0.697 1.522,1.045 2.477,1.045Zm7.762,0c0.955,0 1.781,-0.348 2.477,-1.045c0.697,-0.696 1.045,-1.522 1.045,-2.477c0,-0.956 -0.348,-1.782 -1.045,-2.478c-0.696,-0.697 -1.522,-1.045 -2.477,-1.045c-0.995,0 -1.831,0.338 -2.508,1.015c-0.676,0.677 -1.015,1.513 -1.015,2.508c0,0.995 0.339,1.831 1.015,2.507c0.677,0.677 1.513,1.015 2.508,1.015Zm7.761,0c0.955,0 1.781,-0.348 2.478,-1.045c0.696,-0.696 1.045,-1.522 1.045,-2.477c-0,-0.956 -0.349,-1.782 -1.045,-2.478c-0.697,-0.697 -1.523,-1.045 -2.478,-1.045c-0.995,0 -1.831,0.338 -2.507,1.015c-0.677,0.677 -1.015,1.513 -1.015,2.508c-0,0.995 0.338,1.831 1.015,2.507c0.676,0.677 1.512,1.015 2.507,1.015Zm7.762,0c0.955,0 1.781,-0.348 2.477,-1.045c0.697,-0.696 1.045,-1.522 1.045,-2.477c0,-0.956 -0.348,-1.782 -1.045,-2.478c-0.696,-0.697 -1.522,-1.045 -2.477,-1.045c-0.996,0 -1.831,0.338 -2.508,1.015c-0.677,0.677 -1.015,1.513 -1.015,2.508c0,0.995 0.338,1.831 1.015,2.507c0.677,0.677 1.512,1.015 2.508,1.015Z" style="fill:#d5975b;fill-rule:nonzero;"/><path d="M309.774,163.838c0.955,0 1.781,-0.348 2.478,-1.045c0.696,-0.696 1.044,-1.522 1.044,-2.477c0,-0.995 -0.338,-1.831 -1.015,-2.508c-0.676,-0.677 -1.512,-1.015 -2.507,-1.015c-0.995,0 -1.831,0.338 -2.508,1.015c-0.676,0.677 -1.015,1.513 -1.015,2.508c0,0.955 0.349,1.781 1.045,2.477c0.697,0.697 1.523,1.045 2.478,1.045Zm7.761,0c0.956,0 1.781,-0.348 2.478,-1.045c0.696,-0.696 1.045,-1.522 1.045,-2.477c-0,-0.995 -0.339,-1.831 -1.015,-2.508c-0.677,-0.677 -1.513,-1.015 -2.508,-1.015c-0.995,0 -1.831,0.338 -2.507,1.015c-0.677,0.677 -1.015,1.513 -1.015,2.508c-0,0.995 0.338,1.831 1.015,2.507c0.676,0.677 1.512,1.015 2.507,1.015Zm23.225,0c0.995,0 1.831,-0.338 2.507,-1.015c0.677,-0.676 1.015,-1.512 1.015,-2.507c0,-0.995 -0.338,-1.831 -1.015,-2.508c-0.676,-0.677 -1.512,-1.015 -2.507,-1.015c-0.995,0 -1.821,0.338 -2.478,1.015c-0.657,0.677 -0.985,1.513 -0.985,2.508c0,0.955 0.338,1.781 1.015,2.477c0.677,0.697 1.493,1.045 2.448,1.045Zm7.761,0c0.995,0 1.831,-0.338 2.508,-1.015c0.676,-0.676 1.015,-1.512 1.015,-2.507c-0,-0.995 -0.339,-1.831 -1.015,-2.508c-0.677,-0.677 -1.513,-1.015 -2.508,-1.015c-0.995,0 -1.831,0.338 -2.507,1.015c-0.677,0.677 -1.015,1.513 -1.015,2.508c-0,0.955 0.348,1.781 1.045,2.477c0.696,0.697 1.522,1.045 2.477,1.045Zm-38.747,7.762c0.955,-0 1.781,-0.349 2.478,-1.045c0.696,-0.697 1.044,-1.523 1.044,-2.478c0,-0.995 -0.338,-1.831 -1.015,-2.507c-0.676,-0.677 -1.512,-1.015 -2.507,-1.015c-0.995,-0 -1.831,0.338 -2.508,1.015c-0.676,0.676 -1.015,1.512 -1.015,2.507c0,0.955 0.349,1.781 1.045,2.478c0.697,0.696 1.523,1.045 2.478,1.045Zm7.761,-0c0.956,-0 1.781,-0.349 2.478,-1.045c0.696,-0.697 1.045,-1.523 1.045,-2.478c-0,-0.995 -0.339,-1.831 -1.015,-2.507c-0.677,-0.677 -1.513,-1.015 -2.508,-1.015c-0.995,-0 -1.831,0.338 -2.507,1.015c-0.677,0.676 -1.015,1.512 -1.015,2.507c-0,0.995 0.338,1.831 1.015,2.508c0.676,0.676 1.512,1.015 2.507,1.015Zm23.225,-0c0.995,-0 1.831,-0.339 2.507,-1.015c0.677,-0.677 1.015,-1.513 1.015,-2.508c0,-0.995 -0.338,-1.831 -1.015,-2.507c-0.676,-0.677 -1.512,-1.015 -2.507,-1.015c-0.995,-0 -1.821,0.338 -2.478,1.015c-0.657,0.676 -0.985,1.512 -0.985,2.507c0,0.955 0.338,1.781 1.015,2.478c0.677,0.696 1.493,1.045 2.448,1.045Zm7.761,-0c0.995,-0 1.831,-0.339 2.508,-1.015c0.676,-0.677 1.015,-1.513 1.015,-2.508c-0,-0.995 -0.339,-1.831 -1.015,-2.507c-0.677,-0.677 -1.513,-1.015 -2.508,-1.015c-0.995,-0 -1.831,0.338 -2.507,1.015c-0.677,0.676 -1.015,1.512 -1.015,2.507c-0,0.955 0.348,1.781 1.045,2.478c0.696,0.696 1.522,1.045 2.477,1.045Zm-38.747,7.701c0.995,0 1.831,-0.338 2.507,-1.015c0.677,-0.676 1.015,-1.512 1.015,-2.507c0,-0.955 -0.348,-1.771 -1.044,-2.448c-0.697,-0.677 -1.523,-1.015 -2.478,-1.015c-0.955,-0 -1.781,0.338 -2.478,1.015c-0.696,0.677 -1.045,1.493 -1.045,2.448c0,0.995 0.339,1.831 1.015,2.507c0.677,0.677 1.513,1.015 2.508,1.015Zm7.761,0c0.995,0 1.831,-0.338 2.508,-1.015c0.676,-0.676 1.015,-1.512 1.015,-2.507c-0,-0.955 -0.349,-1.771 -1.045,-2.448c-0.697,-0.677 -1.522,-1.015 -2.478,-1.015c-0.995,-0 -1.831,0.328 -2.507,0.985c-0.677,0.657 -1.015,1.483 -1.015,2.478c-0,0.995 0.338,1.831 1.015,2.507c0.676,0.677 1.512,1.015 2.507,1.015Zm23.225,0c0.995,0 1.831,-0.338 2.507,-1.015c0.677,-0.676 1.015,-1.512 1.015,-2.507c0,-0.995 -0.338,-1.821 -1.015,-2.478c-0.676,-0.657 -1.512,-0.985 -2.507,-0.985c-0.955,-0 -1.771,0.338 -2.448,1.015c-0.677,0.677 -1.015,1.493 -1.015,2.448c0,0.995 0.328,1.831 0.985,2.507c0.657,0.677 1.483,1.015 2.478,1.015Zm7.761,0c0.995,0 1.831,-0.338 2.508,-1.015c0.676,-0.676 1.015,-1.512 1.015,-2.507c-0,-0.995 -0.339,-1.821 -1.015,-2.478c-0.677,-0.657 -1.513,-0.985 -2.508,-0.985c-0.955,-0 -1.781,0.338 -2.477,1.015c-0.697,0.677 -1.045,1.493 -1.045,2.448c-0,0.995 0.338,1.831 1.015,2.507c0.676,0.677 1.512,1.015 2.507,1.015Zm-38.747,7.762c0.995,-0 1.831,-0.339 2.507,-1.015c0.677,-0.677 1.015,-1.513 1.015,-2.508c0,-0.955 -0.348,-1.781 -1.044,-2.478c-0.697,-0.696 -1.523,-1.044 -2.478,-1.044c-0.955,-0 -1.781,0.348 -2.478,1.044c-0.696,0.697 -1.045,1.523 -1.045,2.478c0,0.995 0.339,1.831 1.015,2.508c0.677,0.676 1.513,1.015 2.508,1.015Zm7.761,-0c0.995,-0 1.831,-0.339 2.508,-1.015c0.676,-0.677 1.015,-1.513 1.015,-2.508c-0,-0.955 -0.349,-1.781 -1.045,-2.478c-0.697,-0.696 -1.522,-1.044 -2.478,-1.044c-0.995,-0 -1.831,0.338 -2.507,1.015c-0.677,0.676 -1.015,1.512 -1.015,2.507c-0,0.995 0.338,1.831 1.015,2.508c0.676,0.676 1.512,1.015 2.507,1.015Zm23.225,-0c0.995,-0 1.831,-0.339 2.507,-1.015c0.677,-0.677 1.015,-1.513 1.015,-2.508c0,-0.995 -0.338,-1.831 -1.015,-2.507c-0.676,-0.677 -1.512,-1.015 -2.507,-1.015c-0.955,-0 -1.771,0.348 -2.448,1.044c-0.677,0.697 -1.015,1.523 -1.015,2.478c0,0.995 0.328,1.831 0.985,2.508c0.657,0.676 1.483,1.015 2.478,1.015Zm7.761,-0c0.995,-0 1.831,-0.339 2.508,-1.015c0.676,-0.677 1.015,-1.513 1.015,-2.508c-0,-0.995 -0.339,-1.831 -1.015,-2.507c-0.677,-0.677 -1.513,-1.015 -2.508,-1.015c-0.955,-0 -1.781,0.348 -2.477,1.044c-0.697,0.697 -1.045,1.523 -1.045,2.478c-0,0.995 0.338,1.831 1.015,2.508c0.676,0.676 1.512,1.015 2.507,1.015Zm-30.986,7.88c0.995,0 1.831,-0.338 2.508,-1.014c0.676,-0.677 1.015,-1.513 1.015,-2.508c-0,-0.955 -0.349,-1.781 -1.045,-2.478c-0.697,-0.696 -1.522,-1.044 -2.478,-1.044c-0.995,-0 -1.831,0.338 -2.507,1.014c-0.677,0.677 -1.015,1.513 -1.015,2.508c-0,0.995 0.338,1.831 1.015,2.508c0.676,0.676 1.512,1.014 2.507,1.014Zm23.225,0c0.995,0 1.831,-0.338 2.507,-1.014c0.677,-0.677 1.015,-1.513 1.015,-2.508c0,-0.995 -0.338,-1.831 -1.015,-2.508c-0.676,-0.676 -1.512,-1.014 -2.507,-1.014c-0.955,-0 -1.771,0.348 -2.448,1.044c-0.677,0.697 -1.015,1.523 -1.015,2.478c0,0.995 0.328,1.831 0.985,2.508c0.657,0.676 1.483,1.014 2.478,1.014Zm-15.463,7.762c0.955,-0 1.781,-0.348 2.477,-1.045c0.697,-0.696 1.045,-1.522 1.045,-2.478c0,-0.955 -0.348,-1.781 -1.045,-2.477c-0.696,-0.697 -1.522,-1.045 -2.477,-1.045c-0.995,-0 -1.831,0.338 -2.508,1.015c-0.676,0.677 -1.015,1.512 -1.015,2.507c0,0.995 0.339,1.831 1.015,2.508c0.677,0.677 1.513,1.015 2.508,1.015Zm7.761,-0c0.955,-0 1.781,-0.348 2.478,-1.045c0.696,-0.696 1.045,-1.522 1.045,-2.478c-0,-0.955 -0.349,-1.781 -1.045,-2.477c-0.697,-0.697 -1.523,-1.045 -2.478,-1.045c-0.995,-0 -1.831,0.338 -2.507,1.015c-0.677,0.677 -1.015,1.512 -1.015,2.507c-0,0.995 0.338,1.831 1.015,2.508c0.676,0.677 1.512,1.015 2.507,1.015Z" style="fill:#fff;fill-rule:nonzero;"/><path d="M309.774,97.135c0.955,-0 1.781,-0.348 2.478,-1.045c0.696,-0.696 1.044,-1.522 1.044,-2.478c0,-0.995 -0.338,-1.83 -1.015,-2.507c-0.676,-0.677 -1.512,-1.015 -2.507,-1.015c-0.995,-0 -1.831,0.338 -2.508,1.015c-0.676,0.677 -1.015,1.512 -1.015,2.507c0,0.956 0.349,1.782 1.045,2.478c0.697,0.697 1.523,1.045 2.478,1.045Zm7.761,-0c0.956,-0 1.781,-0.348 2.478,-1.045c0.696,-0.696 1.045,-1.522 1.045,-2.478c-0,-0.995 -0.339,-1.83 -1.015,-2.507c-0.677,-0.677 -1.513,-1.015 -2.508,-1.015c-0.995,-0 -1.831,0.338 -2.507,1.015c-0.677,0.677 -1.015,1.512 -1.015,2.507c-0,0.995 0.338,1.831 1.015,2.508c0.676,0.677 1.512,1.015 2.507,1.015Zm7.762,-0c0.955,-0 1.781,-0.348 2.477,-1.045c0.697,-0.696 1.045,-1.522 1.045,-2.478c0,-0.995 -0.338,-1.83 -1.015,-2.507c-0.676,-0.677 -1.512,-1.015 -2.507,-1.015c-0.995,-0 -1.831,0.338 -2.508,1.015c-0.676,0.677 -1.015,1.512 -1.015,2.507c0,0.995 0.339,1.831 1.015,2.508c0.677,0.677 1.513,1.015 2.508,1.015Zm7.761,-0c0.955,-0 1.781,-0.348 2.478,-1.045c0.696,-0.696 1.045,-1.522 1.045,-2.478c-0,-0.995 -0.339,-1.83 -1.015,-2.507c-0.677,-0.677 -1.513,-1.015 -2.508,-1.015c-0.995,-0 -1.831,0.338 -2.507,1.015c-0.677,0.677 -1.015,1.512 -1.015,2.507c-0,0.995 0.338,1.831 1.015,2.508c0.676,0.677 1.512,1.015 2.507,1.015Zm7.702,-0c0.995,-0 1.831,-0.338 2.507,-1.015c0.677,-0.677 1.015,-1.513 1.015,-2.508c0,-0.995 -0.338,-1.83 -1.015,-2.507c-0.676,-0.677 -1.512,-1.015 -2.507,-1.015c-0.995,-0 -1.821,0.338 -2.478,1.015c-0.657,0.677 -0.985,1.512 -0.985,2.507c0,0.956 0.338,1.782 1.015,2.478c0.677,0.697 1.493,1.045 2.448,1.045Zm-30.986,7.761c0.955,0 1.781,-0.348 2.478,-1.044c0.696,-0.697 1.044,-1.523 1.044,-2.478c0,-0.995 -0.338,-1.831 -1.015,-2.508c-0.676,-0.676 -1.512,-1.015 -2.507,-1.015c-0.995,0 -1.831,0.339 -2.508,1.015c-0.676,0.677 -1.015,1.513 -1.015,2.508c0,0.955 0.349,1.781 1.045,2.478c0.697,0.696 1.523,1.044 2.478,1.044Zm7.761,0c0.956,0 1.781,-0.348 2.478,-1.044c0.696,-0.697 1.045,-1.523 1.045,-2.478c-0,-0.995 -0.339,-1.831 -1.015,-2.508c-0.677,-0.676 -1.513,-1.015 -2.508,-1.015c-0.995,0 -1.831,0.339 -2.507,1.015c-0.677,0.677 -1.015,1.513 -1.015,2.508c-0,0.995 0.338,1.831 1.015,2.507c0.676,0.677 1.512,1.015 2.507,1.015Zm23.225,0c0.995,0 1.831,-0.338 2.507,-1.015c0.677,-0.676 1.015,-1.512 1.015,-2.507c0,-0.995 -0.338,-1.831 -1.015,-2.508c-0.676,-0.676 -1.512,-1.015 -2.507,-1.015c-0.995,0 -1.821,0.339 -2.478,1.015c-0.657,0.677 -0.985,1.513 -0.985,2.508c0,0.955 0.338,1.781 1.015,2.478c0.677,0.696 1.493,1.044 2.448,1.044Zm7.761,0c0.995,0 1.831,-0.338 2.508,-1.015c0.676,-0.676 1.015,-1.512 1.015,-2.507c-0,-0.995 -0.339,-1.831 -1.015,-2.508c-0.677,-0.676 -1.513,-1.015 -2.508,-1.015c-0.995,0 -1.831,0.339 -2.507,1.015c-0.677,0.677 -1.015,1.513 -1.015,2.508c-0,0.955 0.348,1.781 1.045,2.478c0.696,0.696 1.522,1.044 2.477,1.044Zm-38.747,7.702c0.995,0 1.831,-0.338 2.507,-1.015c0.677,-0.677 1.015,-1.512 1.015,-2.507c0,-0.956 -0.348,-1.772 -1.044,-2.448c-0.697,-0.677 -1.523,-1.015 -2.478,-1.015c-0.955,-0 -1.781,0.338 -2.478,1.015c-0.696,0.676 -1.045,1.492 -1.045,2.448c0,0.995 0.339,1.83 1.015,2.507c0.677,0.677 1.513,1.015 2.508,1.015Zm7.761,0c0.995,0 1.831,-0.338 2.508,-1.015c0.676,-0.677 1.015,-1.512 1.015,-2.507c-0,-0.956 -0.349,-1.772 -1.045,-2.448c-0.697,-0.677 -1.522,-1.015 -2.478,-1.015c-0.995,-0 -1.831,0.328 -2.507,0.985c-0.677,0.657 -1.015,1.482 -1.015,2.478c-0,0.995 0.338,1.83 1.015,2.507c0.676,0.677 1.512,1.015 2.507,1.015Zm23.225,0c0.995,0 1.831,-0.338 2.507,-1.015c0.677,-0.677 1.015,-1.512 1.015,-2.507c0,-0.996 -0.338,-1.821 -1.015,-2.478c-0.676,-0.657 -1.512,-0.985 -2.507,-0.985c-0.955,-0 -1.771,0.338 -2.448,1.015c-0.677,0.676 -1.015,1.492 -1.015,2.448c0,0.995 0.328,1.83 0.985,2.507c0.657,0.677 1.483,1.015 2.478,1.015Zm7.761,0c0.995,0 1.831,-0.338 2.508,-1.015c0.676,-0.677 1.015,-1.512 1.015,-2.507c-0,-0.996 -0.339,-1.821 -1.015,-2.478c-0.677,-0.657 -1.513,-0.985 -2.508,-0.985c-0.955,-0 -1.781,0.338 -2.477,1.015c-0.697,0.676 -1.045,1.492 -1.045,2.448c-0,0.995 0.338,1.83 1.015,2.507c0.676,0.677 1.512,1.015 2.507,1.015Zm-38.747,7.761c0.995,0 1.831,-0.338 2.507,-1.015c0.677,-0.676 1.015,-1.512 1.015,-2.507c0,-0.955 -0.348,-1.781 -1.044,-2.478c-0.697,-0.696 -1.523,-1.045 -2.478,-1.045c-0.955,0 -1.781,0.349 -2.478,1.045c-0.696,0.697 -1.045,1.523 -1.045,2.478c0,0.995 0.339,1.831 1.015,2.507c0.677,0.677 1.513,1.015 2.508,1.015Zm7.761,0c0.995,0 1.831,-0.338 2.508,-1.015c0.676,-0.676 1.015,-1.512 1.015,-2.507c-0,-0.955 -0.349,-1.781 -1.045,-2.478c-0.697,-0.696 -1.522,-1.045 -2.478,-1.045c-0.995,0 -1.831,0.339 -2.507,1.015c-0.677,0.677 -1.015,1.513 -1.015,2.508c-0,0.995 0.338,1.831 1.015,2.507c0.676,0.677 1.512,1.015 2.507,1.015Zm7.762,0c0.995,0 1.831,-0.338 2.507,-1.015c0.677,-0.676 1.015,-1.512 1.015,-2.507c0,-0.955 -0.348,-1.781 -1.045,-2.478c-0.696,-0.696 -1.522,-1.045 -2.477,-1.045c-0.995,0 -1.831,0.339 -2.508,1.015c-0.676,0.677 -1.015,1.513 -1.015,2.508c0,0.995 0.339,1.831 1.015,2.507c0.677,0.677 1.513,1.015 2.508,1.015Zm7.761,0c0.995,0 1.831,-0.338 2.508,-1.015c0.676,-0.676 1.015,-1.512 1.015,-2.507c-0,-0.955 -0.349,-1.781 -1.045,-2.478c-0.697,-0.696 -1.523,-1.045 -2.478,-1.045c-0.995,0 -1.831,0.339 -2.507,1.015c-0.677,0.677 -1.015,1.513 -1.015,2.508c-0,0.995 0.338,1.831 1.015,2.507c0.676,0.677 1.512,1.015 2.507,1.015Zm7.702,0c0.995,0 1.831,-0.338 2.507,-1.015c0.677,-0.676 1.015,-1.512 1.015,-2.507c0,-0.995 -0.338,-1.831 -1.015,-2.508c-0.676,-0.676 -1.512,-1.015 -2.507,-1.015c-0.955,0 -1.771,0.349 -2.448,1.045c-0.677,0.697 -1.015,1.523 -1.015,2.478c0,0.995 0.328,1.831 0.985,2.507c0.657,0.677 1.483,1.015 2.478,1.015Zm-30.986,7.881c0.995,0 1.831,-0.338 2.507,-1.015c0.677,-0.676 1.015,-1.512 1.015,-2.507c0,-0.955 -0.348,-1.781 -1.044,-2.478c-0.697,-0.696 -1.523,-1.045 -2.478,-1.045c-0.955,0 -1.781,0.349 -2.478,1.045c-0.696,0.697 -1.045,1.523 -1.045,2.478c0,0.995 0.339,1.831 1.015,2.507c0.677,0.677 1.513,1.015 2.508,1.015Zm7.761,0c0.995,0 1.831,-0.338 2.508,-1.015c0.676,-0.676 1.015,-1.512 1.015,-2.507c-0,-0.955 -0.349,-1.781 -1.045,-2.478c-0.697,-0.696 -1.522,-1.045 -2.478,-1.045c-0.995,0 -1.831,0.339 -2.507,1.015c-0.677,0.677 -1.015,1.513 -1.015,2.508c-0,0.995 0.338,1.831 1.015,2.507c0.676,0.677 1.512,1.015 2.507,1.015Zm23.225,0c0.995,0 1.831,-0.338 2.507,-1.015c0.677,-0.676 1.015,-1.512 1.015,-2.507c0,-0.995 -0.338,-1.831 -1.015,-2.508c-0.676,-0.676 -1.512,-1.015 -2.507,-1.015c-0.955,0 -1.771,0.349 -2.448,1.045c-0.677,0.697 -1.015,1.523 -1.015,2.478c0,0.995 0.328,1.831 0.985,2.507c0.657,0.677 1.483,1.015 2.478,1.015Zm7.761,0c0.995,0 1.831,-0.338 2.508,-1.015c0.676,-0.676 1.015,-1.512 1.015,-2.507c-0,-0.995 -0.339,-1.831 -1.015,-2.508c-0.677,-0.676 -1.513,-1.015 -2.508,-1.015c-0.955,0 -1.781,0.349 -2.477,1.045c-0.697,0.697 -1.045,1.523 -1.045,2.478c-0,0.995 0.338,1.831 1.015,2.507c0.676,0.677 1.512,1.015 2.507,1.015Zm-38.747,7.762c0.955,-0 1.781,-0.349 2.478,-1.045c0.696,-0.697 1.044,-1.523 1.044,-2.478c0,-0.955 -0.348,-1.781 -1.044,-2.477c-0.697,-0.697 -1.523,-1.045 -2.478,-1.045c-0.955,-0 -1.781,0.348 -2.478,1.045c-0.696,0.696 -1.045,1.522 -1.045,2.477c0,0.955 0.349,1.781 1.045,2.478c0.697,0.696 1.523,1.045 2.478,1.045Zm7.761,-0c0.956,-0 1.781,-0.349 2.478,-1.045c0.696,-0.697 1.045,-1.523 1.045,-2.478c-0,-0.955 -0.349,-1.781 -1.045,-2.477c-0.697,-0.697 -1.522,-1.045 -2.478,-1.045c-0.995,-0 -1.831,0.338 -2.507,1.015c-0.677,0.676 -1.015,1.512 -1.015,2.507c-0,0.995 0.338,1.831 1.015,2.508c0.676,0.676 1.512,1.015 2.507,1.015Zm23.225,-0c0.995,-0 1.831,-0.339 2.507,-1.015c0.677,-0.677 1.015,-1.513 1.015,-2.508c0,-0.995 -0.338,-1.831 -1.015,-2.507c-0.676,-0.677 -1.512,-1.015 -2.507,-1.015c-0.955,-0 -1.771,0.348 -2.448,1.045c-0.677,0.696 -1.015,1.522 -1.015,2.477c0,0.955 0.338,1.781 1.015,2.478c0.677,0.696 1.493,1.045 2.448,1.045Zm7.761,-0c0.995,-0 1.831,-0.339 2.508,-1.015c0.676,-0.677 1.015,-1.513 1.015,-2.508c-0,-0.995 -0.339,-1.831 -1.015,-2.507c-0.677,-0.677 -1.513,-1.015 -2.508,-1.015c-0.955,-0 -1.781,0.348 -2.477,1.045c-0.697,0.696 -1.045,1.522 -1.045,2.477c-0,0.955 0.348,1.781 1.045,2.478c0.696,0.696 1.522,1.045 2.477,1.045Z" style="fill:#b237a8;fill-rule:nonzero;"/><path d="M309.774,30.432c0.955,-0 1.781,-0.349 2.478,-1.045c0.696,-0.697 1.044,-1.523 1.044,-2.478c0,-0.995 -0.338,-1.831 -1.015,-2.507c-0.676,-0.677 -1.512,-1.015 -2.507,-1.015c-0.995,-0 -1.831,0.338 -2.508,1.015c-0.676,0.676 -1.015,1.512 -1.015,2.507c0,0.955 0.349,1.781 1.045,2.478c0.697,0.696 1.523,1.045 2.478,1.045Zm7.761,-0c0.956,-0 1.781,-0.349 2.478,-1.045c0.696,-0.697 1.045,-1.523 1.045,-2.478c-0,-0.995 -0.339,-1.831 -1.015,-2.507c-0.677,-0.677 -1.513,-1.015 -2.508,-1.015c-0.995,-0 -1.831,0.338 -2.507,1.015c-0.677,0.676 -1.015,1.512 -1.015,2.507c-0,0.995 0.338,1.831 1.015,2.508c0.676,0.676 1.512,1.015 2.507,1.015Zm7.762,-0c0.955,-0 1.781,-0.349 2.477,-1.045c0.697,-0.697 1.045,-1.523 1.045,-2.478c0,-0.995 -0.338,-1.831 -1.015,-2.507c-0.676,-0.677 -1.512,-1.015 -2.507,-1.015c-0.995,-0 -1.831,0.338 -2.508,1.015c-0.676,0.676 -1.015,1.512 -1.015,2.507c0,0.995 0.339,1.831 1.015,2.508c0.677,0.676 1.513,1.015 2.508,1.015Zm7.761,-0c0.955,-0 1.781,-0.349 2.478,-1.045c0.696,-0.697 1.045,-1.523 1.045,-2.478c-0,-0.995 -0.339,-1.831 -1.015,-2.507c-0.677,-0.677 -1.513,-1.015 -2.508,-1.015c-0.995,-0 -1.831,0.338 -2.507,1.015c-0.677,0.676 -1.015,1.512 -1.015,2.507c-0,0.995 0.338,1.831 1.015,2.508c0.676,0.676 1.512,1.015 2.507,1.015Zm7.702,-0c0.995,-0 1.831,-0.339 2.507,-1.015c0.677,-0.677 1.015,-1.513 1.015,-2.508c0,-0.995 -0.338,-1.831 -1.015,-2.507c-0.676,-0.677 -1.512,-1.015 -2.507,-1.015c-0.995,-0 -1.821,0.338 -2.478,1.015c-0.657,0.676 -0.985,1.512 -0.985,2.507c0,0.955 0.338,1.781 1.015,2.478c0.677,0.696 1.493,1.045 2.448,1.045Zm-30.986,7.761c0.955,0 1.781,-0.348 2.478,-1.045c0.696,-0.696 1.044,-1.522 1.044,-2.477c0,-0.995 -0.338,-1.831 -1.015,-2.508c-0.676,-0.677 -1.512,-1.015 -2.507,-1.015c-0.995,0 -1.831,0.338 -2.508,1.015c-0.676,0.677 -1.015,1.513 -1.015,2.508c0,0.955 0.349,1.781 1.045,2.477c0.697,0.697 1.523,1.045 2.478,1.045Zm7.761,0c0.956,0 1.781,-0.348 2.478,-1.045c0.696,-0.696 1.045,-1.522 1.045,-2.477c-0,-0.995 -0.339,-1.831 -1.015,-2.508c-0.677,-0.677 -1.513,-1.015 -2.508,-1.015c-0.995,0 -1.831,0.338 -2.507,1.015c-0.677,0.677 -1.015,1.513 -1.015,2.508c-0,0.995 0.338,1.83 1.015,2.507c0.676,0.677 1.512,1.015 2.507,1.015Zm23.225,0c0.995,0 1.831,-0.338 2.507,-1.015c0.677,-0.677 1.015,-1.512 1.015,-2.507c0,-0.995 -0.338,-1.831 -1.015,-2.508c-0.676,-0.677 -1.512,-1.015 -2.507,-1.015c-0.995,0 -1.821,0.338 -2.478,1.015c-0.657,0.677 -0.985,1.513 -0.985,2.508c0,0.955 0.338,1.781 1.015,2.477c0.677,0.697 1.493,1.045 2.448,1.045Zm7.761,0c0.995,0 1.831,-0.338 2.508,-1.015c0.676,-0.677 1.015,-1.512 1.015,-2.507c-0,-0.995 -0.339,-1.831 -1.015,-2.508c-0.677,-0.677 -1.513,-1.015 -2.508,-1.015c-0.995,0 -1.831,0.338 -2.507,1.015c-0.677,0.677 -1.015,1.513 -1.015,2.508c-0,0.955 0.348,1.781 1.045,2.477c0.696,0.697 1.522,1.045 2.477,1.045Zm-38.747,7.702c0.995,-0 1.831,-0.339 2.507,-1.015c0.677,-0.677 1.015,-1.513 1.015,-2.508c0,-0.955 -0.348,-1.771 -1.044,-2.448c-0.697,-0.676 -1.523,-1.014 -2.478,-1.014c-0.955,-0 -1.781,0.338 -2.478,1.014c-0.696,0.677 -1.045,1.493 -1.045,2.448c0,0.995 0.339,1.831 1.015,2.508c0.677,0.676 1.513,1.015 2.508,1.015Zm7.761,-0c0.995,-0 1.831,-0.339 2.508,-1.015c0.676,-0.677 1.015,-1.513 1.015,-2.508c-0,-0.955 -0.349,-1.771 -1.045,-2.448c-0.697,-0.676 -1.522,-1.014 -2.478,-1.014c-0.995,-0 -1.831,0.328 -2.507,0.985c-0.677,0.656 -1.015,1.482 -1.015,2.477c-0,0.995 0.338,1.831 1.015,2.508c0.676,0.676 1.512,1.015 2.507,1.015Zm23.225,-0c0.995,-0 1.831,-0.339 2.507,-1.015c0.677,-0.677 1.015,-1.513 1.015,-2.508c0,-0.995 -0.338,-1.821 -1.015,-2.477c-0.676,-0.657 -1.512,-0.985 -2.507,-0.985c-0.955,-0 -1.771,0.338 -2.448,1.014c-0.677,0.677 -1.015,1.493 -1.015,2.448c0,0.995 0.328,1.831 0.985,2.508c0.657,0.676 1.483,1.015 2.478,1.015Zm7.761,-0c0.995,-0 1.831,-0.339 2.508,-1.015c0.676,-0.677 1.015,-1.513 1.015,-2.508c-0,-0.995 -0.339,-1.821 -1.015,-2.477c-0.677,-0.657 -1.513,-0.985 -2.508,-0.985c-0.955,-0 -1.781,0.338 -2.477,1.014c-0.697,0.677 -1.045,1.493 -1.045,2.448c-0,0.995 0.338,1.831 1.015,2.508c0.676,0.676 1.512,1.015 2.507,1.015Zm-38.747,7.761c0.995,0 1.831,-0.338 2.507,-1.015c0.677,-0.676 1.015,-1.512 1.015,-2.507c0,-0.956 -0.348,-1.781 -1.044,-2.478c-0.697,-0.696 -1.523,-1.045 -2.478,-1.045c-0.955,0 -1.781,0.349 -2.478,1.045c-0.696,0.697 -1.045,1.522 -1.045,2.478c0,0.995 0.339,1.831 1.015,2.507c0.677,0.677 1.513,1.015 2.508,1.015Zm7.761,0c0.995,0 1.831,-0.338 2.508,-1.015c0.676,-0.676 1.015,-1.512 1.015,-2.507c-0,-0.956 -0.349,-1.781 -1.045,-2.478c-0.697,-0.696 -1.522,-1.045 -2.478,-1.045c-0.995,0 -1.831,0.339 -2.507,1.015c-0.677,0.677 -1.015,1.513 -1.015,2.508c-0,0.995 0.338,1.831 1.015,2.507c0.676,0.677 1.512,1.015 2.507,1.015Zm23.225,0c0.995,0 1.831,-0.338 2.507,-1.015c0.677,-0.676 1.015,-1.512 1.015,-2.507c0,-0.995 -0.338,-1.831 -1.015,-2.508c-0.676,-0.676 -1.512,-1.015 -2.507,-1.015c-0.955,0 -1.771,0.349 -2.448,1.045c-0.677,0.697 -1.015,1.522 -1.015,2.478c0,0.995 0.328,1.831 0.985,2.507c0.657,0.677 1.483,1.015 2.478,1.015Zm7.761,0c0.995,0 1.831,-0.338 2.508,-1.015c0.676,-0.676 1.015,-1.512 1.015,-2.507c-0,-0.995 -0.339,-1.831 -1.015,-2.508c-0.677,-0.676 -1.513,-1.015 -2.508,-1.015c-0.955,0 -1.781,0.349 -2.477,1.045c-0.697,0.697 -1.045,1.522 -1.045,2.478c-0,0.995 0.338,1.831 1.015,2.507c0.676,0.677 1.512,1.015 2.507,1.015Zm-38.747,7.881c0.995,0 1.831,-0.338 2.507,-1.015c0.677,-0.677 1.015,-1.512 1.015,-2.507c0,-0.956 -0.348,-1.782 -1.044,-2.478c-0.697,-0.697 -1.523,-1.045 -2.478,-1.045c-0.955,0 -1.781,0.348 -2.478,1.045c-0.696,0.696 -1.045,1.522 -1.045,2.478c0,0.995 0.339,1.83 1.015,2.507c0.677,0.677 1.513,1.015 2.508,1.015Zm7.761,0c0.995,0 1.831,-0.338 2.508,-1.015c0.676,-0.677 1.015,-1.512 1.015,-2.507c-0,-0.956 -0.349,-1.782 -1.045,-2.478c-0.697,-0.697 -1.522,-1.045 -2.478,-1.045c-0.995,0 -1.831,0.338 -2.507,1.015c-0.677,0.677 -1.015,1.513 -1.015,2.508c-0,0.995 0.338,1.83 1.015,2.507c0.676,0.677 1.512,1.015 2.507,1.015Zm23.225,0c0.995,0 1.831,-0.338 2.507,-1.015c0.677,-0.677 1.015,-1.512 1.015,-2.507c0,-0.995 -0.338,-1.831 -1.015,-2.508c-0.676,-0.677 -1.512,-1.015 -2.507,-1.015c-0.955,0 -1.771,0.348 -2.448,1.045c-0.677,0.696 -1.015,1.522 -1.015,2.478c0,0.995 0.328,1.83 0.985,2.507c0.657,0.677 1.483,1.015 2.478,1.015Zm7.761,0c0.995,0 1.831,-0.338 2.508,-1.015c0.676,-0.677 1.015,-1.512 1.015,-2.507c-0,-0.995 -0.339,-1.831 -1.015,-2.508c-0.677,-0.677 -1.513,-1.015 -2.508,-1.015c-0.955,0 -1.781,0.348 -2.477,1.045c-0.697,0.696 -1.045,1.522 -1.045,2.478c-0,0.995 0.338,1.83 1.015,2.507c0.676,0.677 1.512,1.015 2.507,1.015Zm-38.747,7.761c0.955,0 1.781,-0.348 2.478,-1.044c0.696,-0.697 1.044,-1.523 1.044,-2.478c0,-0.955 -0.348,-1.781 -1.044,-2.478c-0.697,-0.696 -1.523,-1.045 -2.478,-1.045c-0.955,0 -1.781,0.349 -2.478,1.045c-0.696,0.697 -1.045,1.523 -1.045,2.478c0,0.955 0.349,1.781 1.045,2.478c0.697,0.696 1.523,1.044 2.478,1.044Zm7.761,0c0.956,0 1.781,-0.348 2.478,-1.044c0.696,-0.697 1.045,-1.523 1.045,-2.478c-0,-0.955 -0.349,-1.781 -1.045,-2.478c-0.697,-0.696 -1.522,-1.045 -2.478,-1.045c-0.995,0 -1.831,0.339 -2.507,1.015c-0.677,0.677 -1.015,1.513 -1.015,2.508c-0,0.995 0.338,1.831 1.015,2.508c0.676,0.676 1.512,1.014 2.507,1.014Zm7.762,0c0.955,0 1.781,-0.348 2.477,-1.044c0.697,-0.697 1.045,-1.523 1.045,-2.478c0,-0.955 -0.348,-1.781 -1.045,-2.478c-0.696,-0.696 -1.522,-1.045 -2.477,-1.045c-0.995,0 -1.831,0.339 -2.508,1.015c-0.676,0.677 -1.015,1.513 -1.015,2.508c0,0.995 0.339,1.831 1.015,2.508c0.677,0.676 1.513,1.014 2.508,1.014Zm7.761,0c0.955,0 1.781,-0.348 2.478,-1.044c0.696,-0.697 1.045,-1.523 1.045,-2.478c-0,-0.955 -0.349,-1.781 -1.045,-2.478c-0.697,-0.696 -1.523,-1.045 -2.478,-1.045c-0.995,0 -1.831,0.339 -2.507,1.015c-0.677,0.677 -1.015,1.513 -1.015,2.508c-0,0.995 0.338,1.831 1.015,2.508c0.676,0.676 1.512,1.014 2.507,1.014Zm7.702,0c0.995,0 1.831,-0.338 2.507,-1.014c0.677,-0.677 1.015,-1.513 1.015,-2.508c0,-0.995 -0.338,-1.831 -1.015,-2.508c-0.676,-0.676 -1.512,-1.015 -2.507,-1.015c-0.955,0 -1.771,0.349 -2.448,1.045c-0.677,0.697 -1.015,1.523 -1.015,2.478c0,0.955 0.338,1.781 1.015,2.478c0.677,0.696 1.493,1.044 2.448,1.044Z" style="fill:#37b26b;fill-rule:nonzero;"/></g><g><path d="M84.104,15.134l123.137,-0c38.982,-0 70.364,31.382 70.364,70.364l0,123.138c0,38.982 -31.382,70.364 -70.364,70.364l-123.137,0c-38.982,0 -70.365,-31.382 -70.365,-70.364l0,-123.138c0,-38.982 31.383,-70.364 70.365,-70.364Z" style="fill:#d7d6cf;fill-rule:nonzero;"/><path d="M86.163,65.99c4.324,-0 8.063,-1.577 11.216,-4.73c3.153,-3.153 4.729,-6.891 4.729,-11.215c0,-4.504 -1.531,-8.288 -4.594,-11.35c-3.063,-3.063 -6.846,-4.595 -11.351,-4.595c-4.504,0 -8.287,1.532 -11.35,4.595c-3.063,3.062 -4.594,6.846 -4.594,11.35c-0,4.324 1.576,8.062 4.729,11.215c3.153,3.153 6.891,4.73 11.215,4.73Zm35.133,-0c4.324,-0 8.062,-1.577 11.215,-4.73c3.153,-3.153 4.729,-6.891 4.729,-11.215c0,-4.504 -1.531,-8.288 -4.594,-11.35c-3.063,-3.063 -6.846,-4.595 -11.35,-4.595c-4.504,0 -8.288,1.532 -11.351,4.595c-3.063,3.062 -4.594,6.846 -4.594,11.35c0,4.504 1.531,8.287 4.594,11.35c3.063,3.063 6.847,4.595 11.351,4.595Zm35.132,-0c4.324,-0 8.062,-1.577 11.215,-4.73c3.153,-3.153 4.729,-6.891 4.729,-11.215c0,-4.504 -1.531,-8.288 -4.594,-11.35c-3.063,-3.063 -6.846,-4.595 -11.35,-4.595c-4.504,0 -8.288,1.532 -11.351,4.595c-3.062,3.062 -4.594,6.846 -4.594,11.35c0,4.504 1.532,8.287 4.594,11.35c3.063,3.063 6.847,4.595 11.351,4.595Zm35.132,-0c4.324,-0 8.062,-1.577 11.215,-4.73c3.153,-3.153 4.73,-6.891 4.73,-11.215c-0,-4.504 -1.532,-8.288 -4.595,-11.35c-3.062,-3.063 -6.846,-4.595 -11.35,-4.595c-4.504,0 -8.288,1.532 -11.35,4.595c-3.063,3.062 -4.595,6.846 -4.595,11.35c0,4.504 1.532,8.287 4.595,11.35c3.062,3.063 6.846,4.595 11.35,4.595Zm-70.264,35.132c4.324,-0 8.062,-1.577 11.215,-4.73c3.153,-3.153 4.729,-6.891 4.729,-11.215c0,-4.504 -1.531,-8.288 -4.594,-11.35c-3.063,-3.063 -6.846,-4.595 -11.35,-4.595c-4.504,0 -8.288,1.532 -11.351,4.595c-3.063,3.062 -4.594,6.846 -4.594,11.35c0,4.504 1.531,8.288 4.594,11.35c3.063,3.063 6.847,4.595 11.351,4.595Zm35.132,-0c4.324,-0 8.062,-1.577 11.215,-4.73c3.153,-3.153 4.729,-6.891 4.729,-11.215c0,-4.504 -1.531,-8.288 -4.594,-11.35c-3.063,-3.063 -6.846,-4.595 -11.35,-4.595c-4.504,0 -8.288,1.532 -11.351,4.595c-3.062,3.062 -4.594,6.846 -4.594,11.35c0,4.504 1.532,8.288 4.594,11.35c3.063,3.063 6.847,4.595 11.351,4.595Zm-35.132,34.862c4.504,-0 8.287,-1.532 11.35,-4.595c3.063,-3.062 4.594,-6.846 4.594,-11.35c0,-4.324 -1.576,-8.017 -4.729,-11.08c-3.153,-3.063 -6.891,-4.594 -11.215,-4.594c-4.504,-0 -8.288,1.486 -11.351,4.459c-3.063,2.972 -4.594,6.711 -4.594,11.215c0,4.504 1.531,8.288 4.594,11.35c3.063,3.063 6.847,4.595 11.351,4.595Zm35.132,-0c4.504,-0 8.287,-1.532 11.35,-4.595c3.063,-3.062 4.594,-6.846 4.594,-11.35c0,-4.324 -1.576,-8.017 -4.729,-11.08c-3.153,-3.063 -6.891,-4.594 -11.215,-4.594c-4.504,-0 -8.288,1.486 -11.351,4.459c-3.062,2.972 -4.594,6.711 -4.594,11.215c0,4.504 1.532,8.288 4.594,11.35c3.063,3.063 6.847,4.595 11.351,4.595Zm-35.132,35.132c4.504,-0 8.287,-1.532 11.35,-4.594c3.063,-3.063 4.594,-6.847 4.594,-11.351c0,-4.324 -1.576,-8.062 -4.729,-11.215c-3.153,-3.153 -6.891,-4.729 -11.215,-4.729c-4.504,-0 -8.288,1.531 -11.351,4.594c-3.063,3.063 -4.594,6.846 -4.594,11.35c0,4.504 1.531,8.288 4.594,11.351c3.063,3.062 6.847,4.594 11.351,4.594Zm35.132,-0c4.504,-0 8.287,-1.532 11.35,-4.594c3.063,-3.063 4.594,-6.847 4.594,-11.351c0,-4.324 -1.576,-8.062 -4.729,-11.215c-3.153,-3.153 -6.891,-4.729 -11.215,-4.729c-4.504,-0 -8.288,1.531 -11.351,4.594c-3.062,3.063 -4.594,6.846 -4.594,11.35c0,4.504 1.532,8.288 4.594,11.351c3.063,3.062 6.847,4.594 11.351,4.594Zm-35.132,35.672c4.504,0 8.287,-1.531 11.35,-4.594c3.063,-3.063 4.594,-6.846 4.594,-11.35c0,-4.324 -1.576,-8.063 -4.729,-11.215c-3.153,-3.153 -6.891,-4.73 -11.215,-4.73c-4.504,0 -8.288,1.532 -11.351,4.594c-3.063,3.063 -4.594,6.847 -4.594,11.351c0,4.504 1.531,8.287 4.594,11.35c3.063,3.063 6.847,4.594 11.351,4.594Zm35.132,0c4.504,0 8.287,-1.531 11.35,-4.594c3.063,-3.063 4.594,-6.846 4.594,-11.35c0,-4.324 -1.576,-8.063 -4.729,-11.215c-3.153,-3.153 -6.891,-4.73 -11.215,-4.73c-4.504,0 -8.288,1.532 -11.351,4.594c-3.062,3.063 -4.594,6.847 -4.594,11.351c0,4.504 1.532,8.287 4.594,11.35c3.063,3.063 6.847,4.594 11.351,4.594Zm-70.265,35.133c4.324,-0 8.063,-1.577 11.216,-4.73c3.153,-3.153 4.729,-6.891 4.729,-11.215c0,-4.324 -1.576,-8.062 -4.729,-11.215c-3.153,-3.153 -6.892,-4.73 -11.216,-4.73c-4.324,0 -8.062,1.577 -11.215,4.73c-3.153,3.153 -4.729,6.891 -4.729,11.215c-0,4.324 1.576,8.062 4.729,11.215c3.153,3.153 6.891,4.73 11.215,4.73Zm35.133,-0c4.324,-0 8.062,-1.577 11.215,-4.73c3.153,-3.153 4.729,-6.891 4.729,-11.215c0,-4.324 -1.576,-8.062 -4.729,-11.215c-3.153,-3.153 -6.891,-4.73 -11.215,-4.73c-4.504,0 -8.288,1.532 -11.351,4.595c-3.063,3.062 -4.594,6.846 -4.594,11.35c0,4.504 1.531,8.288 4.594,11.35c3.063,3.063 6.847,4.595 11.351,4.595Zm35.132,-0c4.324,-0 8.062,-1.577 11.215,-4.73c3.153,-3.153 4.729,-6.891 4.729,-11.215c0,-4.324 -1.576,-8.062 -4.729,-11.215c-3.153,-3.153 -6.891,-4.73 -11.215,-4.73c-4.504,0 -8.288,1.532 -11.351,4.595c-3.062,3.062 -4.594,6.846 -4.594,11.35c0,4.504 1.532,8.288 4.594,11.35c3.063,3.063 6.847,4.595 11.351,4.595Zm35.132,-0c4.324,-0 8.062,-1.577 11.215,-4.73c3.153,-3.153 4.73,-6.891 4.73,-11.215c-0,-4.324 -1.577,-8.062 -4.73,-11.215c-3.153,-3.153 -6.891,-4.73 -11.215,-4.73c-4.504,0 -8.288,1.532 -11.35,4.595c-3.063,3.062 -4.595,6.846 -4.595,11.35c0,4.504 1.532,8.288 4.595,11.35c3.062,3.063 6.846,4.595 11.35,4.595Z" style="fill:#d5975b;fill-opacity:0.75;fill-rule:nonzero;"/><path d="M68.413,85.263c4.324,-0 8.062,-1.577 11.215,-4.73c3.153,-3.153 4.73,-6.891 4.73,-11.215c-0,-4.504 -1.532,-8.287 -4.595,-11.35c-3.062,-3.063 -6.846,-4.595 -11.35,-4.595c-4.504,0 -8.288,1.532 -11.35,4.595c-3.063,3.063 -4.595,6.846 -4.595,11.35c0,4.324 1.577,8.062 4.73,11.215c3.153,3.153 6.891,4.73 11.215,4.73Zm35.132,-0c4.324,-0 8.063,-1.577 11.216,-4.73c3.152,-3.153 4.729,-6.891 4.729,-11.215c-0,-4.504 -1.532,-8.287 -4.594,-11.35c-3.063,-3.063 -6.847,-4.595 -11.351,-4.595c-4.504,0 -8.287,1.532 -11.35,4.595c-3.063,3.063 -4.594,6.846 -4.594,11.35c-0,4.504 1.531,8.288 4.594,11.35c3.063,3.063 6.846,4.595 11.35,4.595Zm105.127,-0c4.504,-0 8.287,-1.532 11.35,-4.595c3.063,-3.062 4.594,-6.846 4.594,-11.35c0,-4.504 -1.531,-8.287 -4.594,-11.35c-3.063,-3.063 -6.846,-4.595 -11.35,-4.595c-4.505,0 -8.243,1.532 -11.216,4.595c-2.972,3.063 -4.459,6.846 -4.459,11.35c0,4.324 1.532,8.062 4.594,11.215c3.063,3.153 6.757,4.73 11.081,4.73Zm35.132,-0c4.504,-0 8.287,-1.532 11.35,-4.595c3.063,-3.062 4.594,-6.846 4.594,-11.35c0,-4.504 -1.531,-8.287 -4.594,-11.35c-3.063,-3.063 -6.846,-4.595 -11.35,-4.595c-4.504,0 -8.288,1.532 -11.351,4.595c-3.062,3.063 -4.594,6.846 -4.594,11.35c0,4.324 1.577,8.062 4.729,11.215c3.153,3.153 6.892,4.73 11.216,4.73Zm-175.391,35.132c4.324,-0 8.062,-1.577 11.215,-4.729c3.153,-3.153 4.73,-6.892 4.73,-11.216c-0,-4.504 -1.532,-8.287 -4.595,-11.35c-3.062,-3.063 -6.846,-4.594 -11.35,-4.594c-4.504,-0 -8.288,1.531 -11.35,4.594c-3.063,3.063 -4.595,6.846 -4.595,11.35c0,4.324 1.577,8.063 4.73,11.216c3.153,3.152 6.891,4.729 11.215,4.729Zm35.132,-0c4.324,-0 8.063,-1.577 11.216,-4.729c3.152,-3.153 4.729,-6.892 4.729,-11.216c-0,-4.504 -1.532,-8.287 -4.594,-11.35c-3.063,-3.063 -6.847,-4.594 -11.351,-4.594c-4.504,-0 -8.287,1.531 -11.35,4.594c-3.063,3.063 -4.594,6.846 -4.594,11.35c-0,4.504 1.531,8.288 4.594,11.351c3.063,3.062 6.846,4.594 11.35,4.594Zm105.127,-0c4.504,-0 8.287,-1.532 11.35,-4.594c3.063,-3.063 4.594,-6.847 4.594,-11.351c0,-4.504 -1.531,-8.287 -4.594,-11.35c-3.063,-3.063 -6.846,-4.594 -11.35,-4.594c-4.505,-0 -8.243,1.531 -11.216,4.594c-2.972,3.063 -4.459,6.846 -4.459,11.35c0,4.324 1.532,8.063 4.594,11.216c3.063,3.152 6.757,4.729 11.081,4.729Zm35.132,-0c4.504,-0 8.287,-1.532 11.35,-4.594c3.063,-3.063 4.594,-6.847 4.594,-11.351c0,-4.504 -1.531,-8.287 -4.594,-11.35c-3.063,-3.063 -6.846,-4.594 -11.35,-4.594c-4.504,-0 -8.288,1.531 -11.351,4.594c-3.062,3.063 -4.594,6.846 -4.594,11.35c0,4.324 1.577,8.063 4.729,11.216c3.153,3.152 6.892,4.729 11.216,4.729Zm-175.391,34.862c4.504,-0 8.288,-1.532 11.35,-4.594c3.063,-3.063 4.595,-6.847 4.595,-11.351c-0,-4.324 -1.577,-8.017 -4.73,-11.08c-3.153,-3.063 -6.891,-4.594 -11.215,-4.594c-4.324,-0 -8.062,1.531 -11.215,4.594c-3.153,3.063 -4.73,6.756 -4.73,11.08c0,4.504 1.532,8.288 4.595,11.351c3.062,3.062 6.846,4.594 11.35,4.594Zm35.132,-0c4.504,-0 8.288,-1.532 11.351,-4.594c3.062,-3.063 4.594,-6.847 4.594,-11.351c-0,-4.324 -1.577,-8.017 -4.729,-11.08c-3.153,-3.063 -6.892,-4.594 -11.216,-4.594c-4.504,-0 -8.287,1.486 -11.35,4.459c-3.063,2.973 -4.594,6.711 -4.594,11.215c-0,4.504 1.531,8.288 4.594,11.351c3.063,3.062 6.846,4.594 11.35,4.594Zm105.127,-0c4.504,-0 8.287,-1.532 11.35,-4.594c3.063,-3.063 4.594,-6.847 4.594,-11.351c0,-4.504 -1.531,-8.242 -4.594,-11.215c-3.063,-2.973 -6.846,-4.459 -11.35,-4.459c-4.324,-0 -8.018,1.531 -11.081,4.594c-3.062,3.063 -4.594,6.756 -4.594,11.08c0,4.504 1.487,8.288 4.459,11.351c2.973,3.062 6.711,4.594 11.216,4.594Zm35.132,-0c4.504,-0 8.287,-1.532 11.35,-4.594c3.063,-3.063 4.594,-6.847 4.594,-11.351c0,-4.504 -1.531,-8.242 -4.594,-11.215c-3.063,-2.973 -6.846,-4.459 -11.35,-4.459c-4.324,-0 -8.063,1.531 -11.216,4.594c-3.152,3.063 -4.729,6.756 -4.729,11.08c0,4.504 1.532,8.288 4.594,11.351c3.063,3.062 6.847,4.594 11.351,4.594Zm-175.391,35.132c4.504,-0 8.288,-1.531 11.35,-4.594c3.063,-3.063 4.595,-6.846 4.595,-11.351c-0,-4.324 -1.577,-8.062 -4.73,-11.215c-3.153,-3.153 -6.891,-4.729 -11.215,-4.729c-4.324,-0 -8.062,1.576 -11.215,4.729c-3.153,3.153 -4.73,6.891 -4.73,11.215c0,4.505 1.532,8.288 4.595,11.351c3.062,3.063 6.846,4.594 11.35,4.594Zm35.132,-0c4.504,-0 8.288,-1.531 11.351,-4.594c3.062,-3.063 4.594,-6.846 4.594,-11.351c-0,-4.324 -1.577,-8.062 -4.729,-11.215c-3.153,-3.153 -6.892,-4.729 -11.216,-4.729c-4.504,-0 -8.287,1.531 -11.35,4.594c-3.063,3.063 -4.594,6.846 -4.594,11.35c-0,4.505 1.531,8.288 4.594,11.351c3.063,3.063 6.846,4.594 11.35,4.594Zm105.127,-0c4.504,-0 8.287,-1.531 11.35,-4.594c3.063,-3.063 4.594,-6.846 4.594,-11.351c0,-4.504 -1.531,-8.287 -4.594,-11.35c-3.063,-3.063 -6.846,-4.594 -11.35,-4.594c-4.324,-0 -8.018,1.576 -11.081,4.729c-3.062,3.153 -4.594,6.891 -4.594,11.215c0,4.505 1.487,8.288 4.459,11.351c2.973,3.063 6.711,4.594 11.216,4.594Zm35.132,-0c4.504,-0 8.287,-1.531 11.35,-4.594c3.063,-3.063 4.594,-6.846 4.594,-11.351c0,-4.504 -1.531,-8.287 -4.594,-11.35c-3.063,-3.063 -6.846,-4.594 -11.35,-4.594c-4.324,-0 -8.063,1.576 -11.216,4.729c-3.152,3.153 -4.729,6.891 -4.729,11.215c0,4.505 1.532,8.288 4.594,11.351c3.063,3.063 6.847,4.594 11.351,4.594Zm-140.259,35.673c4.504,-0 8.288,-1.532 11.351,-4.595c3.062,-3.062 4.594,-6.846 4.594,-11.35c-0,-4.324 -1.577,-8.062 -4.729,-11.215c-3.153,-3.153 -6.892,-4.73 -11.216,-4.73c-4.504,0 -8.287,1.532 -11.35,4.595c-3.063,3.062 -4.594,6.846 -4.594,11.35c-0,4.504 1.531,8.288 4.594,11.35c3.063,3.063 6.846,4.595 11.35,4.595Zm105.127,-0c4.504,-0 8.287,-1.532 11.35,-4.595c3.063,-3.062 4.594,-6.846 4.594,-11.35c0,-4.504 -1.531,-8.288 -4.594,-11.35c-3.063,-3.063 -6.846,-4.595 -11.35,-4.595c-4.324,0 -8.018,1.577 -11.081,4.73c-3.062,3.153 -4.594,6.891 -4.594,11.215c0,4.504 1.487,8.288 4.459,11.35c2.973,3.063 6.711,4.595 11.216,4.595Zm-69.995,35.132c4.324,-0 8.063,-1.577 11.216,-4.729c3.153,-3.153 4.729,-6.892 4.729,-11.216c0,-4.324 -1.576,-8.062 -4.729,-11.215c-3.153,-3.153 -6.892,-4.729 -11.216,-4.729c-4.504,-0 -8.287,1.531 -11.35,4.594c-3.063,3.063 -4.594,6.846 -4.594,11.35c-0,4.504 1.531,8.288 4.594,11.351c3.063,3.062 6.846,4.594 11.35,4.594Zm35.133,-0c4.324,-0 8.062,-1.577 11.215,-4.729c3.153,-3.153 4.729,-6.892 4.729,-11.216c0,-4.324 -1.576,-8.062 -4.729,-11.215c-3.153,-3.153 -6.891,-4.729 -11.215,-4.729c-4.505,-0 -8.288,1.531 -11.351,4.594c-3.063,3.063 -4.594,6.846 -4.594,11.35c0,4.504 1.531,8.288 4.594,11.351c3.063,3.062 6.846,4.594 11.351,4.594Z" style="fill:#5b9bd5;fill-opacity:0.76;fill-rule:nonzero;"/><path d="M51.031,84.996c4.324,0 8.063,-1.576 11.216,-4.729c3.152,-3.153 4.729,-6.892 4.729,-11.216c-0,-4.504 -1.532,-8.287 -4.594,-11.35c-3.063,-3.063 -6.847,-4.594 -11.351,-4.594c-4.504,-0 -8.287,1.531 -11.35,4.594c-3.063,3.063 -4.594,6.846 -4.594,11.35c-0,4.324 1.576,8.063 4.729,11.216c3.153,3.153 6.891,4.729 11.215,4.729Zm35.132,0c4.324,0 8.063,-1.576 11.216,-4.729c3.153,-3.153 4.729,-6.892 4.729,-11.216c0,-4.504 -1.531,-8.287 -4.594,-11.35c-3.063,-3.063 -6.846,-4.594 -11.351,-4.594c-4.504,-0 -8.287,1.531 -11.35,4.594c-3.063,3.063 -4.594,6.846 -4.594,11.35c-0,4.505 1.531,8.288 4.594,11.351c3.063,3.063 6.846,4.594 11.35,4.594Zm35.133,0c4.324,0 8.062,-1.576 11.215,-4.729c3.153,-3.153 4.729,-6.892 4.729,-11.216c0,-4.504 -1.531,-8.287 -4.594,-11.35c-3.063,-3.063 -6.846,-4.594 -11.35,-4.594c-4.504,-0 -8.288,1.531 -11.351,4.594c-3.063,3.063 -4.594,6.846 -4.594,11.35c0,4.505 1.531,8.288 4.594,11.351c3.063,3.063 6.847,4.594 11.351,4.594Zm35.132,0c4.324,0 8.062,-1.576 11.215,-4.729c3.153,-3.153 4.729,-6.892 4.729,-11.216c0,-4.504 -1.531,-8.287 -4.594,-11.35c-3.063,-3.063 -6.846,-4.594 -11.35,-4.594c-4.504,-0 -8.288,1.531 -11.351,4.594c-3.062,3.063 -4.594,6.846 -4.594,11.35c0,4.505 1.532,8.288 4.594,11.351c3.063,3.063 6.847,4.594 11.351,4.594Zm34.862,0c4.504,0 8.287,-1.531 11.35,-4.594c3.063,-3.063 4.594,-6.846 4.594,-11.351c0,-4.504 -1.531,-8.287 -4.594,-11.35c-3.063,-3.063 -6.846,-4.594 -11.35,-4.594c-4.504,-0 -8.243,1.531 -11.216,4.594c-2.972,3.063 -4.459,6.846 -4.459,11.35c0,4.324 1.532,8.063 4.595,11.216c3.062,3.153 6.756,4.729 11.08,4.729Zm-140.259,35.132c4.324,0 8.063,-1.576 11.216,-4.729c3.152,-3.153 4.729,-6.891 4.729,-11.215c-0,-4.504 -1.532,-8.288 -4.594,-11.351c-3.063,-3.063 -6.847,-4.594 -11.351,-4.594c-4.504,0 -8.287,1.531 -11.35,4.594c-3.063,3.063 -4.594,6.847 -4.594,11.351c-0,4.324 1.576,8.062 4.729,11.215c3.153,3.153 6.891,4.729 11.215,4.729Zm35.132,0c4.324,0 8.063,-1.576 11.216,-4.729c3.153,-3.153 4.729,-6.891 4.729,-11.215c0,-4.504 -1.531,-8.288 -4.594,-11.351c-3.063,-3.063 -6.846,-4.594 -11.351,-4.594c-4.504,0 -8.287,1.531 -11.35,4.594c-3.063,3.063 -4.594,6.847 -4.594,11.351c-0,4.504 1.531,8.287 4.594,11.35c3.063,3.063 6.846,4.594 11.35,4.594Zm105.127,0c4.504,0 8.287,-1.531 11.35,-4.594c3.063,-3.063 4.594,-6.846 4.594,-11.35c0,-4.504 -1.531,-8.288 -4.594,-11.351c-3.063,-3.063 -6.846,-4.594 -11.35,-4.594c-4.504,0 -8.243,1.531 -11.216,4.594c-2.972,3.063 -4.459,6.847 -4.459,11.351c0,4.324 1.532,8.062 4.595,11.215c3.062,3.153 6.756,4.729 11.08,4.729Zm35.132,0c4.504,0 8.288,-1.531 11.35,-4.594c3.063,-3.063 4.595,-6.846 4.595,-11.35c-0,-4.504 -1.532,-8.288 -4.595,-11.351c-3.062,-3.063 -6.846,-4.594 -11.35,-4.594c-4.504,0 -8.288,1.531 -11.35,4.594c-3.063,3.063 -4.595,6.847 -4.595,11.351c0,4.324 1.577,8.062 4.73,11.215c3.153,3.153 6.891,4.729 11.215,4.729Zm-175.391,34.862c4.504,0 8.288,-1.531 11.351,-4.594c3.062,-3.063 4.594,-6.846 4.594,-11.35c-0,-4.324 -1.577,-8.018 -4.729,-11.081c-3.153,-3.062 -6.892,-4.594 -11.216,-4.594c-4.324,0 -8.062,1.532 -11.215,4.594c-3.153,3.063 -4.729,6.757 -4.729,11.081c-0,4.504 1.531,8.287 4.594,11.35c3.063,3.063 6.846,4.594 11.35,4.594Zm35.132,0c4.505,0 8.288,-1.531 11.351,-4.594c3.063,-3.063 4.594,-6.846 4.594,-11.35c0,-4.324 -1.576,-8.018 -4.729,-11.081c-3.153,-3.062 -6.892,-4.594 -11.216,-4.594c-4.504,0 -8.287,1.487 -11.35,4.459c-3.063,2.973 -4.594,6.711 -4.594,11.216c-0,4.504 1.531,8.287 4.594,11.35c3.063,3.063 6.846,4.594 11.35,4.594Zm105.127,0c4.504,0 8.287,-1.531 11.35,-4.594c3.063,-3.063 4.594,-6.846 4.594,-11.35c0,-4.505 -1.531,-8.243 -4.594,-11.216c-3.063,-2.972 -6.846,-4.459 -11.35,-4.459c-4.324,0 -8.018,1.532 -11.08,4.594c-3.063,3.063 -4.595,6.757 -4.595,11.081c0,4.504 1.487,8.287 4.459,11.35c2.973,3.063 6.712,4.594 11.216,4.594Zm35.132,0c4.504,0 8.288,-1.531 11.35,-4.594c3.063,-3.063 4.595,-6.846 4.595,-11.35c-0,-4.505 -1.532,-8.243 -4.595,-11.216c-3.062,-2.972 -6.846,-4.459 -11.35,-4.459c-4.324,0 -8.062,1.532 -11.215,4.594c-3.153,3.063 -4.73,6.757 -4.73,11.081c0,4.504 1.532,8.287 4.595,11.35c3.062,3.063 6.846,4.594 11.35,4.594Zm-175.391,35.132c4.504,0 8.288,-1.531 11.351,-4.594c3.062,-3.063 4.594,-6.846 4.594,-11.35c-0,-4.324 -1.577,-8.063 -4.729,-11.215c-3.153,-3.153 -6.892,-4.73 -11.216,-4.73c-4.324,0 -8.062,1.577 -11.215,4.73c-3.153,3.152 -4.729,6.891 -4.729,11.215c-0,4.504 1.531,8.287 4.594,11.35c3.063,3.063 6.846,4.594 11.35,4.594Zm35.132,0c4.505,0 8.288,-1.531 11.351,-4.594c3.063,-3.063 4.594,-6.846 4.594,-11.35c0,-4.324 -1.576,-8.063 -4.729,-11.215c-3.153,-3.153 -6.892,-4.73 -11.216,-4.73c-4.504,0 -8.287,1.532 -11.35,4.594c-3.063,3.063 -4.594,6.847 -4.594,11.351c-0,4.504 1.531,8.287 4.594,11.35c3.063,3.063 6.846,4.594 11.35,4.594Zm35.133,0c4.504,0 8.287,-1.531 11.35,-4.594c3.063,-3.063 4.594,-6.846 4.594,-11.35c0,-4.324 -1.576,-8.063 -4.729,-11.215c-3.153,-3.153 -6.891,-4.73 -11.215,-4.73c-4.504,0 -8.288,1.532 -11.351,4.594c-3.063,3.063 -4.594,6.847 -4.594,11.351c0,4.504 1.531,8.287 4.594,11.35c3.063,3.063 6.847,4.594 11.351,4.594Zm35.132,0c4.504,0 8.287,-1.531 11.35,-4.594c3.063,-3.063 4.594,-6.846 4.594,-11.35c0,-4.324 -1.576,-8.063 -4.729,-11.215c-3.153,-3.153 -6.891,-4.73 -11.215,-4.73c-4.504,0 -8.288,1.532 -11.351,4.594c-3.062,3.063 -4.594,6.847 -4.594,11.351c0,4.504 1.532,8.287 4.594,11.35c3.063,3.063 6.847,4.594 11.351,4.594Zm34.862,0c4.504,0 8.287,-1.531 11.35,-4.594c3.063,-3.063 4.594,-6.846 4.594,-11.35c0,-4.504 -1.531,-8.288 -4.594,-11.351c-3.063,-3.062 -6.846,-4.594 -11.35,-4.594c-4.324,0 -8.018,1.577 -11.08,4.73c-3.063,3.152 -4.595,6.891 -4.595,11.215c0,4.504 1.487,8.287 4.459,11.35c2.973,3.063 6.712,4.594 11.216,4.594Zm-140.259,35.673c4.504,0 8.288,-1.531 11.351,-4.594c3.062,-3.063 4.594,-6.846 4.594,-11.351c-0,-4.324 -1.577,-8.062 -4.729,-11.215c-3.153,-3.153 -6.892,-4.729 -11.216,-4.729c-4.324,-0 -8.062,1.576 -11.215,4.729c-3.153,3.153 -4.729,6.891 -4.729,11.215c-0,4.505 1.531,8.288 4.594,11.351c3.063,3.063 6.846,4.594 11.35,4.594Zm35.132,0c4.505,0 8.288,-1.531 11.351,-4.594c3.063,-3.063 4.594,-6.846 4.594,-11.351c0,-4.324 -1.576,-8.062 -4.729,-11.215c-3.153,-3.153 -6.892,-4.729 -11.216,-4.729c-4.504,-0 -8.287,1.531 -11.35,4.594c-3.063,3.063 -4.594,6.846 -4.594,11.35c-0,4.505 1.531,8.288 4.594,11.351c3.063,3.063 6.846,4.594 11.35,4.594Zm105.127,0c4.504,0 8.287,-1.531 11.35,-4.594c3.063,-3.063 4.594,-6.846 4.594,-11.351c0,-4.504 -1.531,-8.287 -4.594,-11.35c-3.063,-3.063 -6.846,-4.594 -11.35,-4.594c-4.324,-0 -8.018,1.576 -11.08,4.729c-3.063,3.153 -4.595,6.891 -4.595,11.215c0,4.505 1.487,8.288 4.459,11.351c2.973,3.063 6.712,4.594 11.216,4.594Zm35.132,0c4.504,0 8.288,-1.531 11.35,-4.594c3.063,-3.063 4.595,-6.846 4.595,-11.351c-0,-4.504 -1.532,-8.287 -4.595,-11.35c-3.062,-3.063 -6.846,-4.594 -11.35,-4.594c-4.324,-0 -8.062,1.576 -11.215,4.729c-3.153,3.153 -4.73,6.891 -4.73,11.215c0,4.505 1.532,8.288 4.595,11.351c3.062,3.063 6.846,4.594 11.35,4.594Zm-175.391,35.132c4.324,0 8.063,-1.576 11.216,-4.729c3.152,-3.153 4.729,-6.891 4.729,-11.215c-0,-4.324 -1.577,-8.063 -4.729,-11.216c-3.153,-3.153 -6.892,-4.729 -11.216,-4.729c-4.324,0 -8.062,1.576 -11.215,4.729c-3.153,3.153 -4.729,6.892 -4.729,11.216c-0,4.324 1.576,8.062 4.729,11.215c3.153,3.153 6.891,4.729 11.215,4.729Zm35.132,0c4.324,0 8.063,-1.576 11.216,-4.729c3.153,-3.153 4.729,-6.891 4.729,-11.215c0,-4.324 -1.576,-8.063 -4.729,-11.216c-3.153,-3.153 -6.892,-4.729 -11.216,-4.729c-4.504,0 -8.287,1.531 -11.35,4.594c-3.063,3.063 -4.594,6.846 -4.594,11.351c-0,4.504 1.531,8.287 4.594,11.35c3.063,3.063 6.846,4.594 11.35,4.594Zm105.127,0c4.504,0 8.287,-1.531 11.35,-4.594c3.063,-3.063 4.594,-6.846 4.594,-11.35c0,-4.505 -1.531,-8.288 -4.594,-11.351c-3.063,-3.063 -6.846,-4.594 -11.35,-4.594c-4.324,0 -8.018,1.576 -11.08,4.729c-3.063,3.153 -4.595,6.892 -4.595,11.216c0,4.324 1.532,8.062 4.595,11.215c3.062,3.153 6.756,4.729 11.08,4.729Zm35.132,0c4.504,0 8.288,-1.531 11.35,-4.594c3.063,-3.063 4.595,-6.846 4.595,-11.35c-0,-4.505 -1.532,-8.288 -4.595,-11.351c-3.062,-3.063 -6.846,-4.594 -11.35,-4.594c-4.324,0 -8.062,1.576 -11.215,4.729c-3.153,3.153 -4.73,6.892 -4.73,11.216c0,4.324 1.577,8.062 4.73,11.215c3.153,3.153 6.891,4.729 11.215,4.729Z" style="fill:#b237a8;fill-opacity:0.75;fill-rule:nonzero;"/><path d="M68.413,65.99c4.324,-0 8.062,-1.577 11.215,-4.73c3.153,-3.153 4.73,-6.891 4.73,-11.215c-0,-4.504 -1.532,-8.288 -4.595,-11.35c-3.062,-3.063 -6.846,-4.595 -11.35,-4.595c-4.504,0 -8.288,1.532 -11.35,4.595c-3.063,3.062 -4.595,6.846 -4.595,11.35c0,4.324 1.577,8.062 4.73,11.215c3.153,3.153 6.891,4.73 11.215,4.73Zm35.132,-0c4.324,-0 8.063,-1.577 11.216,-4.73c3.152,-3.153 4.729,-6.891 4.729,-11.215c-0,-4.504 -1.532,-8.288 -4.594,-11.35c-3.063,-3.063 -6.847,-4.595 -11.351,-4.595c-4.504,0 -8.287,1.532 -11.35,4.595c-3.063,3.062 -4.594,6.846 -4.594,11.35c-0,4.504 1.531,8.287 4.594,11.35c3.063,3.063 6.846,4.595 11.35,4.595Zm35.132,-0c4.324,-0 8.063,-1.577 11.216,-4.73c3.153,-3.153 4.729,-6.891 4.729,-11.215c0,-4.504 -1.531,-8.288 -4.594,-11.35c-3.063,-3.063 -6.846,-4.595 -11.351,-4.595c-4.504,0 -8.287,1.532 -11.35,4.595c-3.063,3.062 -4.594,6.846 -4.594,11.35c-0,4.504 1.531,8.287 4.594,11.35c3.063,3.063 6.846,4.595 11.35,4.595Zm35.133,-0c4.324,-0 8.062,-1.577 11.215,-4.73c3.153,-3.153 4.729,-6.891 4.729,-11.215c0,-4.504 -1.531,-8.288 -4.594,-11.35c-3.063,-3.063 -6.846,-4.595 -11.35,-4.595c-4.505,0 -8.288,1.532 -11.351,4.595c-3.063,3.062 -4.594,6.846 -4.594,11.35c0,4.504 1.531,8.287 4.594,11.35c3.063,3.063 6.846,4.595 11.351,4.595Zm34.862,-0c4.504,-0 8.287,-1.532 11.35,-4.595c3.063,-3.063 4.594,-6.846 4.594,-11.35c0,-4.504 -1.531,-8.288 -4.594,-11.35c-3.063,-3.063 -6.846,-4.595 -11.35,-4.595c-4.505,0 -8.243,1.532 -11.216,4.595c-2.972,3.062 -4.459,6.846 -4.459,11.35c0,4.324 1.532,8.062 4.594,11.215c3.063,3.153 6.757,4.73 11.081,4.73Zm-140.259,35.132c4.324,-0 8.062,-1.577 11.215,-4.73c3.153,-3.153 4.73,-6.891 4.73,-11.215c-0,-4.504 -1.532,-8.288 -4.595,-11.35c-3.062,-3.063 -6.846,-4.595 -11.35,-4.595c-4.504,0 -8.288,1.532 -11.35,4.595c-3.063,3.062 -4.595,6.846 -4.595,11.35c0,4.324 1.577,8.062 4.73,11.215c3.153,3.153 6.891,4.73 11.215,4.73Zm35.132,-0c4.324,-0 8.063,-1.577 11.216,-4.73c3.152,-3.153 4.729,-6.891 4.729,-11.215c-0,-4.504 -1.532,-8.288 -4.594,-11.35c-3.063,-3.063 -6.847,-4.595 -11.351,-4.595c-4.504,0 -8.287,1.532 -11.35,4.595c-3.063,3.062 -4.594,6.846 -4.594,11.35c-0,4.504 1.531,8.288 4.594,11.35c3.063,3.063 6.846,4.595 11.35,4.595Zm105.127,-0c4.504,-0 8.287,-1.532 11.35,-4.595c3.063,-3.062 4.594,-6.846 4.594,-11.35c0,-4.504 -1.531,-8.288 -4.594,-11.35c-3.063,-3.063 -6.846,-4.595 -11.35,-4.595c-4.505,0 -8.243,1.532 -11.216,4.595c-2.972,3.062 -4.459,6.846 -4.459,11.35c0,4.324 1.532,8.062 4.594,11.215c3.063,3.153 6.757,4.73 11.081,4.73Zm35.132,-0c4.504,-0 8.287,-1.532 11.35,-4.595c3.063,-3.062 4.594,-6.846 4.594,-11.35c0,-4.504 -1.531,-8.288 -4.594,-11.35c-3.063,-3.063 -6.846,-4.595 -11.35,-4.595c-4.504,0 -8.288,1.532 -11.351,4.595c-3.062,3.062 -4.594,6.846 -4.594,11.35c0,4.324 1.577,8.062 4.729,11.215c3.153,3.153 6.892,4.73 11.216,4.73Zm-175.391,34.862c4.504,-0 8.288,-1.532 11.35,-4.595c3.063,-3.062 4.595,-6.846 4.595,-11.35c-0,-4.324 -1.577,-8.017 -4.73,-11.08c-3.153,-3.063 -6.891,-4.594 -11.215,-4.594c-4.324,-0 -8.062,1.531 -11.215,4.594c-3.153,3.063 -4.73,6.756 -4.73,11.08c0,4.504 1.532,8.288 4.595,11.35c3.062,3.063 6.846,4.595 11.35,4.595Zm35.132,-0c4.504,-0 8.288,-1.532 11.351,-4.595c3.062,-3.062 4.594,-6.846 4.594,-11.35c-0,-4.324 -1.577,-8.017 -4.729,-11.08c-3.153,-3.063 -6.892,-4.594 -11.216,-4.594c-4.504,-0 -8.287,1.486 -11.35,4.459c-3.063,2.972 -4.594,6.711 -4.594,11.215c-0,4.504 1.531,8.288 4.594,11.35c3.063,3.063 6.846,4.595 11.35,4.595Zm105.127,-0c4.504,-0 8.287,-1.532 11.35,-4.595c3.063,-3.062 4.594,-6.846 4.594,-11.35c0,-4.504 -1.531,-8.243 -4.594,-11.215c-3.063,-2.973 -6.846,-4.459 -11.35,-4.459c-4.324,-0 -8.018,1.531 -11.081,4.594c-3.062,3.063 -4.594,6.756 -4.594,11.08c0,4.504 1.487,8.288 4.459,11.35c2.973,3.063 6.711,4.595 11.216,4.595Zm35.132,-0c4.504,-0 8.287,-1.532 11.35,-4.595c3.063,-3.062 4.594,-6.846 4.594,-11.35c0,-4.504 -1.531,-8.243 -4.594,-11.215c-3.063,-2.973 -6.846,-4.459 -11.35,-4.459c-4.324,-0 -8.063,1.531 -11.216,4.594c-3.152,3.063 -4.729,6.756 -4.729,11.08c0,4.504 1.532,8.288 4.594,11.35c3.063,3.063 6.847,4.595 11.351,4.595Zm-175.391,35.132c4.504,-0 8.288,-1.532 11.35,-4.594c3.063,-3.063 4.595,-6.847 4.595,-11.351c-0,-4.324 -1.577,-8.062 -4.73,-11.215c-3.153,-3.153 -6.891,-4.729 -11.215,-4.729c-4.324,-0 -8.062,1.576 -11.215,4.729c-3.153,3.153 -4.73,6.891 -4.73,11.215c0,4.504 1.532,8.288 4.595,11.351c3.062,3.062 6.846,4.594 11.35,4.594Zm35.132,-0c4.504,-0 8.288,-1.532 11.351,-4.594c3.062,-3.063 4.594,-6.847 4.594,-11.351c-0,-4.324 -1.577,-8.062 -4.729,-11.215c-3.153,-3.153 -6.892,-4.729 -11.216,-4.729c-4.504,-0 -8.287,1.531 -11.35,4.594c-3.063,3.063 -4.594,6.846 -4.594,11.35c-0,4.504 1.531,8.288 4.594,11.351c3.063,3.062 6.846,4.594 11.35,4.594Zm105.127,-0c4.504,-0 8.287,-1.532 11.35,-4.594c3.063,-3.063 4.594,-6.847 4.594,-11.351c0,-4.504 -1.531,-8.287 -4.594,-11.35c-3.063,-3.063 -6.846,-4.594 -11.35,-4.594c-4.324,-0 -8.018,1.576 -11.081,4.729c-3.062,3.153 -4.594,6.891 -4.594,11.215c0,4.504 1.487,8.288 4.459,11.351c2.973,3.062 6.711,4.594 11.216,4.594Zm35.132,-0c4.504,-0 8.287,-1.532 11.35,-4.594c3.063,-3.063 4.594,-6.847 4.594,-11.351c0,-4.504 -1.531,-8.287 -4.594,-11.35c-3.063,-3.063 -6.846,-4.594 -11.35,-4.594c-4.324,-0 -8.063,1.576 -11.216,4.729c-3.152,3.153 -4.729,6.891 -4.729,11.215c0,4.504 1.532,8.288 4.594,11.351c3.063,3.062 6.847,4.594 11.351,4.594Zm-175.391,35.672c4.504,0 8.288,-1.531 11.35,-4.594c3.063,-3.063 4.595,-6.846 4.595,-11.35c-0,-4.324 -1.577,-8.063 -4.73,-11.215c-3.153,-3.153 -6.891,-4.73 -11.215,-4.73c-4.324,0 -8.062,1.577 -11.215,4.73c-3.153,3.152 -4.73,6.891 -4.73,11.215c0,4.504 1.532,8.287 4.595,11.35c3.062,3.063 6.846,4.594 11.35,4.594Zm35.132,0c4.504,0 8.288,-1.531 11.351,-4.594c3.062,-3.063 4.594,-6.846 4.594,-11.35c-0,-4.324 -1.577,-8.063 -4.729,-11.215c-3.153,-3.153 -6.892,-4.73 -11.216,-4.73c-4.504,0 -8.287,1.532 -11.35,4.594c-3.063,3.063 -4.594,6.847 -4.594,11.351c-0,4.504 1.531,8.287 4.594,11.35c3.063,3.063 6.846,4.594 11.35,4.594Zm105.127,0c4.504,0 8.287,-1.531 11.35,-4.594c3.063,-3.063 4.594,-6.846 4.594,-11.35c0,-4.504 -1.531,-8.288 -4.594,-11.351c-3.063,-3.062 -6.846,-4.594 -11.35,-4.594c-4.324,0 -8.018,1.577 -11.081,4.73c-3.062,3.152 -4.594,6.891 -4.594,11.215c0,4.504 1.487,8.287 4.459,11.35c2.973,3.063 6.711,4.594 11.216,4.594Zm35.132,0c4.504,0 8.287,-1.531 11.35,-4.594c3.063,-3.063 4.594,-6.846 4.594,-11.35c0,-4.504 -1.531,-8.288 -4.594,-11.351c-3.063,-3.062 -6.846,-4.594 -11.35,-4.594c-4.324,0 -8.063,1.577 -11.216,4.73c-3.152,3.152 -4.729,6.891 -4.729,11.215c0,4.504 1.532,8.287 4.594,11.35c3.063,3.063 6.847,4.594 11.351,4.594Zm-175.391,35.133c4.324,-0 8.062,-1.577 11.215,-4.73c3.153,-3.153 4.73,-6.891 4.73,-11.215c-0,-4.324 -1.577,-8.062 -4.73,-11.215c-3.153,-3.153 -6.891,-4.73 -11.215,-4.73c-4.324,0 -8.062,1.577 -11.215,4.73c-3.153,3.153 -4.73,6.891 -4.73,11.215c0,4.324 1.577,8.062 4.73,11.215c3.153,3.153 6.891,4.73 11.215,4.73Zm35.132,-0c4.324,-0 8.063,-1.577 11.216,-4.73c3.152,-3.153 4.729,-6.891 4.729,-11.215c-0,-4.324 -1.577,-8.062 -4.729,-11.215c-3.153,-3.153 -6.892,-4.73 -11.216,-4.73c-4.504,0 -8.287,1.532 -11.35,4.595c-3.063,3.062 -4.594,6.846 -4.594,11.35c-0,4.504 1.531,8.288 4.594,11.35c3.063,3.063 6.846,4.595 11.35,4.595Zm35.132,-0c4.324,-0 8.063,-1.577 11.216,-4.73c3.153,-3.153 4.729,-6.891 4.729,-11.215c0,-4.324 -1.576,-8.062 -4.729,-11.215c-3.153,-3.153 -6.892,-4.73 -11.216,-4.73c-4.504,0 -8.287,1.532 -11.35,4.595c-3.063,3.062 -4.594,6.846 -4.594,11.35c-0,4.504 1.531,8.288 4.594,11.35c3.063,3.063 6.846,4.595 11.35,4.595Zm35.133,-0c4.324,-0 8.062,-1.577 11.215,-4.73c3.153,-3.153 4.729,-6.891 4.729,-11.215c0,-4.324 -1.576,-8.062 -4.729,-11.215c-3.153,-3.153 -6.891,-4.73 -11.215,-4.73c-4.505,0 -8.288,1.532 -11.351,4.595c-3.063,3.062 -4.594,6.846 -4.594,11.35c0,4.504 1.531,8.288 4.594,11.35c3.063,3.063 6.846,4.595 11.351,4.595Zm34.862,-0c4.504,-0 8.287,-1.532 11.35,-4.595c3.063,-3.062 4.594,-6.846 4.594,-11.35c0,-4.504 -1.531,-8.288 -4.594,-11.35c-3.063,-3.063 -6.846,-4.595 -11.35,-4.595c-4.324,0 -8.018,1.577 -11.081,4.73c-3.062,3.153 -4.594,6.891 -4.594,11.215c0,4.324 1.532,8.062 4.594,11.215c3.063,3.153 6.757,4.73 11.081,4.73Z" style="fill:#37b26b;fill-opacity:0.75;fill-rule:nonzero;"/></g></svg>
